<svg viewBox="0 0 600 400" xmlns="http://www.w3.org/2000/svg">
<g transform="translate(72, 364)">
<g>
<rect fill="burlywood" height="340" stroke="black" width="4.8" x="0" y="-340"/>
<rect fill="burlywood" height="0" stroke="black" width="4.8" x="4.8" y="-0"/>
<rect fill="burlywood" height="0" stroke="black" width="4.799999999999999" x="9.6" y="-0"/>
<rect fill="burlywood" height="0" stroke="black" width="4.800000000000001" x="14.399999999999999" y="-0"/>
<rect fill="burlywood" height="0" stroke="black" width="4.800000000000004" x="19.2" y="-0"/>
<rect fill="burlywood" height="340" stroke="black" width="4.799999999999994" x="24.000000000000004" y="-340"/>
<rect fill="burlywood" height="0" stroke="black" width="4.800000000000004" x="28.799999999999997" y="-0"/>
<rect fill="burlywood" height="0" stroke="black" width="4.799999999999997" x="33.6" y="-0"/>
<rect fill="burlywood" height="0" stroke="black" width="4.799999999999997" x="38.4" y="-0"/>
<rect fill="burlywood" height="0" stroke="black" width="4.800000000000011" x="43.199999999999996" y="-0"/>
<rect fill="burlywood" height="340" stroke="black" width="4.79999999999999" x="48.00000000000001" y="-340"/>
<rect fill="burlywood" height="0" stroke="black" width="4.799999999999997" x="52.8" y="-0"/>
<rect fill="burlywood" height="0" stroke="black" width="4.800000000000011" x="57.599999999999994" y="-0"/>
<rect fill="burlywood" height="0" stroke="black" width="4.799999999999997" x="62.400000000000006" y="-0"/>
<rect fill="burlywood" height="0" stroke="black" width="4.799999999999997" x="67.2" y="-0"/>
<rect fill="burlywood" height="340" stroke="black" width="4.799999999999997" x="72" y="-340"/>
<rect fill="burlywood" height="0" stroke="black" width="4.800000000000011" x="76.8" y="-0"/>
<rect fill="burlywood" height="0" stroke="black" width="4.799999999999983" x="81.60000000000001" y="-0"/>
<rect fill="burlywood" height="0" stroke="black" width="4.800000000000011" x="86.39999999999999" y="-0"/>
<rect fill="burlywood" height="0" stroke="black" width="4.800000000000011" x="91.2" y="-0"/>
<rect fill="burlywood" height="0" stroke="black" width="4.799999999999983" x="96.00000000000001" y="-0"/>
<rect fill="burlywood" height="340" stroke="black" width="4.799999999999997" x="100.8" y="-340"/>
<rect fill="burlywood" height="0" stroke="black" width="4.799999999999997" x="105.6" y="-0"/>
<rect fill="burlywood" height="0" stroke="black" width="4.799999999999997" x="110.39999999999999" y="-0"/>
<rect fill="burlywood" height="0" stroke="black" width="4.800000000000011" x="115.19999999999999" y="-0"/>
<rect fill="burlywood" height="0" stroke="black" width="4.800000000000011" x="120" y="-0"/>
<rect fill="burlywood" height="340" stroke="black" width="4.800000000000011" x="124.80000000000001" y="-340"/>
<rect fill="burlywood" height="0" stroke="black" width="4.799999999999983" x="129.60000000000002" y="-0"/>
<rect fill="burlywood" height="0" stroke="black" width="4.799999999999983" x="134.4" y="-0"/>
<rect fill="burlywood" height="0" stroke="black" width="4.800000000000011" x="139.2" y="-0"/>
<rect fill="burlywood" height="0" stroke="black" width="4.799999999999983" x="144" y="-0"/>
<rect fill="burlywood" height="340" stroke="black" width="4.800000000000011" x="148.79999999999998" y="-340"/>
<rect fill="burlywood" height="0" stroke="black" width="4.800000000000011" x="153.6" y="-0"/>
<rect fill="burlywood" height="0" stroke="black" width="4.800000000000011" x="158.4" y="-0"/>
<rect fill="burlywood" height="0" stroke="black" width="4.7999999999999545" x="163.20000000000002" y="-0"/>
<rect fill="burlywood" height="0" stroke="black" width="4.800000000000011" x="167.99999999999997" y="-0"/>
<rect fill="burlywood" height="340" stroke="black" width="4.800000000000011" x="172.79999999999998" y="-340"/>
<rect fill="burlywood" height="0" stroke="black" width="4.800000000000011" x="177.6" y="-0"/>
<rect fill="burlywood" height="0" stroke="black" width="4.800000000000011" x="182.4" y="-0"/>
<rect fill="burlywood" height="0" stroke="black" width="4.800000000000011" x="187.20000000000002" y="-0"/>
<rect fill="burlywood" height="0" stroke="black" width="4.7999999999999545" x="192.00000000000003" y="-0"/>
<rect fill="burlywood" height="0" stroke="black" width="4.800000000000011" x="196.79999999999998" y="-0"/>
<rect fill="burlywood" height="340" stroke="black" width="4.800000000000011" x="201.6" y="-340"/>
<rect fill="burlywood" height="0" stroke="black" width="4.799999999999983" x="206.4" y="-0"/>
<rect fill="burlywood" height="0" stroke="black" width="4.800000000000011" x="211.2" y="-0"/>
<rect fill="burlywood" height="0" stroke="black" width="4.799999999999983" x="216" y="-0"/>
<rect fill="burlywood" height="0" stroke="black" width="4.800000000000011" x="220.79999999999998" y="-0"/>
<rect fill="burlywood" height="340" stroke="black" width="4.799999999999983" x="225.6" y="-340"/>
<rect fill="burlywood" height="0" stroke="black" width="4.80000000000004" x="230.39999999999998" y="-0"/>
<rect fill="burlywood" height="0" stroke="black" width="4.799999999999983" x="235.20000000000002" y="-0"/>
<rect fill="burlywood" height="0" stroke="black" width="4.799999999999983" x="240" y="-0"/>
<rect fill="burlywood" height="0" stroke="black" width="4.80000000000004" x="244.79999999999998" y="-0"/>
<rect fill="burlywood" height="340" stroke="black" width="4.799999999999983" x="249.60000000000002" y="-340"/>
<rect fill="burlywood" height="0" stroke="black" width="4.80000000000004" x="254.4" y="-0"/>
<rect fill="burlywood" height="0" stroke="black" width="4.800000000000011" x="259.20000000000005" y="-0"/>
<rect fill="burlywood" height="0" stroke="black" width="4.7999999999999545" x="264.00000000000006" y="-0"/>
<rect fill="burlywood" height="0" stroke="black" width="4.7999999999999545" x="268.8" y="-0"/>
<rect fill="burlywood" height="340" stroke="black" width="4.800000000000011" x="273.59999999999997" y="-340"/>
<rect fill="burlywood" height="0" stroke="black" width="4.800000000000011" x="278.4" y="-0"/>
<rect fill="burlywood" height="0" stroke="black" width="4.800000000000011" x="283.2" y="-0"/>
<rect fill="burlywood" height="0" stroke="black" width="4.800000000000011" x="288" y="-0"/>
<rect fill="burlywood" height="0" stroke="black" width="4.7999999999999545" x="292.8" y="-0"/>
<rect fill="burlywood" height="0" stroke="black" width="4.800000000000068" x="297.59999999999997" y="-0"/>
<rect fill="burlywood" height="340" stroke="black" width="4.7999999999999545" x="302.40000000000003" y="-340"/>
<rect fill="burlywood" height="0" stroke="black" width="4.800000000000011" x="307.2" y="-0"/>
<rect fill="burlywood" height="0" stroke="black" width="4.800000000000011" x="312" y="-0"/>
<rect fill="burlywood" height="0" stroke="black" width="4.800000000000011" x="316.8" y="-0"/>
<rect fill="burlywood" height="0" stroke="black" width="4.800000000000011" x="321.6" y="-0"/>
<rect fill="burlywood" height="340" stroke="black" width="4.7999999999999545" x="326.40000000000003" y="-340"/>
<rect fill="burlywood" height="0" stroke="black" width="4.7999999999999545" x="331.2" y="-0"/>
<rect fill="burlywood" height="0" stroke="black" width="4.800000000000011" x="335.99999999999994" y="-0"/>
<rect fill="burlywood" height="0" stroke="black" width="4.800000000000011" x="340.79999999999995" y="-0"/>
<rect fill="burlywood" height="0" stroke="black" width="4.800000000000011" x="345.59999999999997" y="-0"/>
<rect fill="burlywood" height="340" stroke="black" width="4.800000000000011" x="350.4" y="-340"/>
<rect fill="burlywood" height="0" stroke="black" width="4.800000000000011" x="355.2" y="-0"/>
<rect fill="burlywood" height="0" stroke="black" width="4.800000000000011" x="360" y="-0"/>
<rect fill="burlywood" height="0" stroke="black" width="4.800000000000011" x="364.8" y="-0"/>
<rect fill="burlywood" height="0" stroke="black" width="4.800000000000011" x="369.6" y="-0"/>
<rect fill="burlywood" height="340" stroke="black" width="4.800000000000011" x="374.40000000000003" y="-340"/>
<rect fill="burlywood" height="0" stroke="black" width="4.800000000000011" x="379.20000000000005" y="-0"/>
<rect fill="burlywood" height="0" stroke="black" width="4.7999999999999545" x="384.00000000000006" y="-0"/>
<rect fill="burlywood" height="0" stroke="black" width="4.7999999999999545" x="388.8" y="-0"/>
<rect fill="burlywood" height="0" stroke="black" width="4.800000000000011" x="393.59999999999997" y="-0"/>
<rect fill="burlywood" height="0" stroke="black" width="4.800000000000011" x="398.4" y="-0"/>
<rect fill="burlywood" height="340" stroke="black" width="4.7999999999999545" x="403.2" y="-340"/>
<rect fill="burlywood" height="0" stroke="black" width="4.800000000000068" x="407.99999999999994" y="-0"/>
<rect fill="burlywood" height="0" stroke="black" width="4.800000000000011" x="412.8" y="-0"/>
<rect fill="burlywood" height="0" stroke="black" width="4.7999999999999545" x="417.6" y="-0"/>
<rect fill="burlywood" height="0" stroke="black" width="4.800000000000011" x="422.4" y="-0"/>
<rect fill="burlywood" height="340" stroke="black" width="4.800000000000011" x="427.2" y="-340"/>
<rect fill="burlywood" height="0" stroke="black" width="4.7999999999999545" x="432" y="-0"/>
<rect fill="burlywood" height="0" stroke="black" width="4.800000000000011" x="436.79999999999995" y="-0"/>
<rect fill="burlywood" height="0" stroke="black" width="4.800000000000068" x="441.59999999999997" y="-0"/>
<rect fill="burlywood" height="0" stroke="black" width="4.7999999999999545" x="446.40000000000003" y="-0"/>
<rect fill="burlywood" height="340" stroke="black" width="4.800000000000011" x="451.2" y="-340"/>
<rect fill="burlywood" height="0" stroke="black" width="4.7999999999999545" x="456" y="-0"/>
<rect fill="burlywood" height="0" stroke="black" width="4.800000000000011" x="460.79999999999995" y="-0"/>
<rect fill="burlywood" height="0" stroke="black" width="4.800000000000068" x="465.59999999999997" y="-0"/>
<rect fill="burlywood" height="0" stroke="black" width="4.7999999999999545" x="470.40000000000003" y="-0"/>
<rect fill="burlywood" height="340" stroke="black" width="4.800000000000011" x="475.2" y="-340"/>
</g>
<g>
<g>
<line stroke="black" stroke-width="1" x1="0" x2="0" y1="0" y2="10"/>
<line stroke="black" stroke-width="1" x1="101.05263157894737" x2="101.05263157894737" y1="0" y2="10"/>
<line stroke="black" stroke-width="1" x1="202.10526315789474" x2="202.10526315789474" y1="0" y2="10"/>
<line stroke="black" stroke-width="1" x1="303.1578947368421" x2="303.1578947368421" y1="0" y2="10"/>
<line stroke="black" stroke-width="1" x1="404.2105263157895" x2="404.2105263157895" y1="0" y2="10"/>
</g>
<line stroke="black" stroke-width="1" x1="0" x2="480" y1="0" y2="0"/>
<g>
<text font-size="12" text-anchor="middle" x="0" y="20">
0
</text>
<text font-size="12" text-anchor="middle" x="101.05263157894737" y="20">
4
</text>
<text font-size="12" text-anchor="middle" x="202.10526315789474" y="20">
8
</text>
<text font-size="12" text-anchor="middle" x="303.1578947368421" y="20">
12
</text>
<text font-size="12" text-anchor="middle" x="404.2105263157895" y="20">
16
</text>
</g>
<text font-size="12" text-anchor="middle" x="240" y="30">

</text>
</g>
<g>
<g>
<line stroke="black" stroke-width="1" x1="0" x2="-10" y1="-0" y2="-0"/>
<line stroke="black" stroke-width="1" x1="0" x2="-10" y1="-68" y2="-68"/>
<line stroke="black" stroke-width="1" x1="0" x2="-10" y1="-136" y2="-136"/>
<line stroke="black" stroke-width="1" x1="0" x2="-10" y1="-204" y2="-204"/>
<line stroke="black" stroke-width="1" x1="0" x2="-10" y1="-272" y2="-272"/>
<line stroke="black" stroke-width="1" x1="0" x2="-10" y1="-340" y2="-340"/>
</g>
<line stroke="black" stroke-width="1" x1="0" x2="0" y1="0" y2="-340"/>
<g>
<text dominant-baseline="middle" font-size="12" text-anchor="end" x="-15" y="-0">
0
</text>
<text dominant-baseline="middle" font-size="12" text-anchor="end" x="-15" y="-68">
0.2
</text>
<text dominant-baseline="middle" font-size="12" text-anchor="end" x="-15" y="-136">
0.4
</text>
<text dominant-baseline="middle" font-size="12" text-anchor="end" x="-15" y="-204">
0.6
</text>
<text dominant-baseline="middle" font-size="12" text-anchor="end" x="-15" y="-272">
0.8
</text>
<text dominant-baseline="middle" font-size="12" text-anchor="end" x="-15" y="-340">
1
</text>
</g>
<text font-size="12" text-anchor="middle" transform="rotate(-90 -36 -170)" x="-36" y="-182">

</text>
</g>
</g>
</svg>