<svg viewBox="0 0 600 400" xmlns="http://www.w3.org/2000/svg">
<g transform="translate(72, 364)">
<g>
<g>
<path d="M0,-339.99725 L0,-339.99725 L0.96192384,-340 L1.9238477,-340 L2.8857715,-339.99725 L3.8476954,-339.99176 L4.8096194,-339.98352 L5.771543,-339.97253 L6.733467,-339.9588 L7.6953907,-339.9423 L8.657314,-339.92307 L9.619239,-339.9011 L10.581162,-339.87637 L11.543086,-339.8489 L12.50501,-339.81866 L13.466934,-339.7857 L14.428858,-339.75 L15.390781,-339.71152 L16.352705,-339.67032 L17.314629,-339.62634 L18.276552,-339.57965 L19.238478,-339.53018 L20.200401,-339.478 L21.162325,-339.42303 L22.124249,-339.36536 L23.086172,-339.3049 L24.048096,-339.24173 L25.01002,-339.17578 L25.971945,-339.1071 L26.933868,-339.03564 L27.895792,-338.9615 L28.857716,-338.88455 L29.81964,-338.80487 L30.781563,-338.72244 L31.743486,-338.6373 L32.70541,-338.54938 L33.667336,-338.4587 L34.629257,-338.3653 L35.591183,-338.26913 L36.553104,-338.17023 L37.51503,-338.06857 L38.476955,-337.96417 L39.438877,-337.85703 L40.400803,-337.74713 L41.362724,-337.6345 L42.32465,-337.5191 L43.28657,-337.40094 L44.248497,-337.28006 L45.210423,-337.15643 L46.172344,-337.03006 L47.13427,-336.9009 L48.09619,-336.76904 L49.058117,-336.63443 L50.02004,-336.49704 L50.981964,-336.35693 L51.94389,-336.21408 L52.90581,-336.06845 L53.867737,-335.9201 L54.82966,-335.76898 L55.791584,-335.61514 L56.753506,-335.45853 L57.71543,-335.2992 L58.677353,-335.1371 L59.63928,-334.97223 L60.601204,-334.80466 L61.563126,-334.6343 L62.52505,-334.4612 L63.486973,-334.2854 L64.4489,-334.1068 L65.41082,-333.92548 L66.37274,-333.7414 L67.33467,-333.55457 L68.29659,-333.36502 L69.258514,-333.1727 L70.22044,-332.97763 L71.182365,-332.77982 L72.14429,-332.57925 L73.10621,-332.37595 L74.06814,-332.1699 L75.03006,-331.9611 L75.99198,-331.74954 L76.95391,-331.53525 L77.91583,-331.31818 L78.877754,-331.0984 L79.839676,-330.87585 L80.801605,-330.65057 L81.76353,-330.42255 L82.72545,-330.19174 L83.68738,-329.95822 L84.6493,-329.72195 L85.61122,-329.4829 L86.57314,-329.24115 L87.53507,-328.99664 L88.496994,-328.74936 L89.458916,-328.49936 L90.420845,-328.24658 L91.38277,-327.9911 L92.34469,-327.73282 L93.30661,-327.47183 L94.26854,-327.20807 L95.23046,-326.94156 L96.19238,-326.67233 L97.15431,-326.40033 L98.116234,-326.12558 L99.078156,-325.8481 L100.04008,-325.56787 L101.00201,-325.28488 L101.96393,-324.99915 L102.92585,-324.71066 L103.88778,-324.41943 L104.8497,-324.1255 L105.81162,-323.82877 L106.773544,-323.5293 L107.73547,-323.22708 L108.697395,-322.92212 L109.65932,-322.6144 L110.62124,-322.30396 L111.58317,-321.99075 L112.54509,-321.67477 L113.50701,-321.35608 L114.46894,-321.03464 L115.43086,-320.71045 L116.392784,-320.3835 L117.354706,-320.0538 L118.316635,-319.72137 L119.27856,-319.3862 L120.24048,-319.04828 L121.20241,-318.70758 L122.16433,-318.36417 L123.12625,-318.01797 L124.08817,-317.66907 L125.0501,-317.3174 L126.012024,-316.96298 L126.973946,-316.6058 L127.935875,-316.2459 L128.8978,-315.88324 L129.85973,-315.51785 L130.82164,-315.1497 L131.78357,-314.77878 L132.74548,-314.40515 L133.70741,-314.02875 L134.66934,-313.6496 L135.63126,-313.26773 L136.59319,-312.8831 L137.55511,-312.4957 L138.51703,-312.10556 L139.47896,-311.71268 L140.44089,-311.31705 L141.4028,-310.91867 L142.36473,-310.51758 L143.32666,-310.1137 L144.28857,-309.7071 L145.2505,-309.2977 L146.21242,-308.8856 L147.17435,-308.47073 L148.13628,-308.05313 L149.09819,-307.63278 L150.06012,-307.2097 L151.02205,-306.78384 L151.98396,-306.35526 L152.94589,-305.9239 L153.90782,-305.4898 L154.86974,-305.05298 L155.83167,-304.61337 L156.7936,-304.17105 L157.75551,-303.72598 L158.71744,-303.27814 L159.67935,-302.82758 L160.64128,-302.37424 L161.60321,-301.91818 L162.56512,-301.45935 L163.52705,-300.9978 L164.48898,-300.53348 L165.4509,-300.06644 L166.41283,-299.59662 L167.37476,-299.12405 L168.33667,-298.64877 L169.2986,-298.17072 L170.26053,-297.6899 L171.22244,-297.20636 L172.18437,-296.7201 L173.14629,-296.23105 L174.10822,-295.73926 L175.07014,-295.24472 L176.03206,-294.74744 L176.99399,-294.2474 L177.95592,-293.74463 L178.91783,-293.2391 L179.87976,-292.73083 L180.84169,-292.21982 L181.8036,-291.70605 L182.76553,-291.18954 L183.72745,-290.6703 L184.68938,-290.1483 L185.6513,-289.62354 L186.61322,-289.096 L187.57515,-288.56577 L188.53708,-288.03278 L189.499,-287.49704 L190.46092,-286.95853 L191.42285,-286.4173 L192.38477,-285.87332 L193.3467,-285.32657 L194.30862,-284.7771 L195.27054,-284.22485 L196.23247,-283.6699 L197.19438,-283.11215 L198.15631,-282.5517 L199.11824,-281.98846 L200.08015,-281.42252 L201.04208,-280.8538 L202.00401,-280.28235 L202.96593,-279.70813 L203.92786,-279.13116 L204.88979,-278.55148 L205.8517,-277.96902 L206.81363,-277.38382 L207.77556,-276.79587 L208.73747,-276.20517 L209.6994,-275.61176 L210.66132,-275.01556 L211.62325,-274.41663 L212.58517,-273.81494 L213.54709,-273.2105 L214.50902,-272.60333 L215.47095,-271.9934 L216.43286,-271.38074 L217.39479,-270.76532 L218.35672,-270.14716 L219.31863,-269.52625 L220.28056,-268.90256 L221.24248,-268.27615 L222.2044,-267.647 L223.16634,-267.0151 L224.12825,-266.38046 L225.09018,-265.74304 L226.05211,-265.1029 L227.01402,-264.46002 L227.97595,-263.81436 L228.93788,-263.166 L229.8998,-262.51486 L230.86172,-261.86096 L231.82365,-261.20435 L232.78557,-260.54495 L233.7475,-259.88284 L234.70941,-259.21796 L235.67134,-258.55032 L236.63327,-257.87997 L237.59518,-257.20685 L238.55711,-256.531 L239.51904,-255.85239 L240.48096,-255.17102 L241.44289,-254.48692 L242.40482,-253.80006 L243.36673,-253.11047 L244.32866,-252.41812 L245.29059,-251.72302 L246.2525,-251.02519 L247.21443,-250.3246 L248.17635,-249.62126 L249.13828,-248.91518 L250.1002,-248.20634 L251.06212,-247.49477 L252.02405,-246.78044 L252.98598,-246.06337 L253.94789,-245.34355 L254.90982,-244.62097 L255.87175,-243.89566 L256.83368,-243.1676 L257.7956,-242.43678 L258.7575,-241.70323 L259.71945,-240.96692 L260.68137,-240.22787 L261.64328,-239.48607 L262.60522,-238.74153 L263.56714,-237.99423 L264.52905,-237.24419 L265.49097,-236.4914 L266.4529,-235.73586 L267.41483,-234.97757 L268.37674,-234.21654 L269.33868,-233.45276 L270.3006,-232.68623 L271.2625,-231.91696 L272.22446,-231.14494 L273.18637,-230.37018 L274.1483,-229.59265 L275.11023,-228.8124 L276.07214,-228.02939 L277.03406,-227.24362 L277.996,-226.45511 L278.95792,-225.66386 L279.91983,-224.86986 L280.88177,-224.07312 L281.8437,-223.27362 L282.8056,-222.47137 L283.76755,-221.66638 L284.72946,-220.85864 L285.69138,-220.04816 L286.65332,-219.23492 L287.61523,-218.41895 L288.57715,-217.60022 L289.5391,-216.77875 L290.501,-215.95453 L291.46292,-215.12755 L292.42484,-214.29784 L293.38678,-213.46538 L294.3487,-212.63016 L295.3106,-211.7922 L296.27255,-210.95149 L297.23447,-210.10803 L298.19638,-209.26184 L299.15833,-208.41289 L300.12024,-207.56119 L301.08215,-206.70674 L302.0441,-205.84955 L303.006,-204.98962 L303.96793,-204.12694 L304.92987,-203.26149 L305.89178,-202.39331 L306.8537,-201.52238 L307.81564,-200.64871 L308.77756,-199.7723 L309.73947,-198.89311 L310.70142,-198.0112 L311.66333,-197.12654 L312.62524,-196.23912 L313.5872,-195.34897 L314.5491,-194.45605 L315.51102,-193.5604 L316.47293,-192.662 L317.43488,-191.76085 L318.3968,-190.85695 L319.3587,-189.9503 L320.32065,-189.04091 L321.28256,-188.12877 L322.24448,-187.21388 L323.20642,-186.29625 L324.16833,-185.37587 L325.13025,-184.45274 L326.0922,-183.52687 L327.0541,-182.59824 L328.01602,-181.66687 L328.97797,-180.73274 L329.93988,-179.79588 L330.9018,-178.85628 L331.86374,-177.91391 L332.82565,-176.9688 L333.78757,-176.02095 L334.7495,-175.07034 L335.71143,-174.11699 L336.67334,-173.16089 L337.63528,-172.20204 L338.5972,-171.24045 L339.5591,-170.27611 L340.52106,-169.30902 L341.48297,-168.33919 L342.4449,-167.36661 L343.4068,-166.39128 L344.36874,-165.41321 L345.33066,-164.43237 L346.29257,-163.4488 L347.25452,-162.46248 L348.21643,-161.47342 L349.17834,-160.4816 L350.1403,-159.48705 L351.1022,-158.48973 L352.06412,-157.48967 L353.02606,-156.48688 L353.98798,-155.48132 L354.9499,-154.47302 L355.91183,-153.46198 L356.87375,-152.44818 L357.83566,-151.43164 L358.7976,-150.41235 L359.75952,-149.39032 L360.72144,-148.36554 L361.68338,-147.338 L362.6453,-146.30772 L363.6072,-145.2747 L364.56915,-144.23892 L365.53107,-143.20041 L366.49298,-142.15913 L367.4549,-141.11513 L368.41684,-140.06836 L369.37875,-139.01884 L370.34067,-137.9666 L371.3026,-136.91159 L372.26453,-135.85384 L373.22644,-134.79333 L374.1884,-133.73009 L375.1503,-132.6641 L376.1122,-131.59535 L377.07416,-130.52386 L378.03607,-129.44963 L378.998,-128.37265 L379.95993,-127.292915 L380.92184,-126.210434 L381.88376,-125.125206 L382.8457,-124.03724 L383.80762,-122.94652 L384.76953,-121.85304 L385.73148,-120.75683 L386.6934,-119.65787 L387.6553,-118.55616 L388.61725,-117.4517 L389.57916,-116.34449 L390.54108,-115.23454 L391.50302,-114.12184 L392.46494,-113.00639 L393.42685,-111.8882 L394.38876,-110.76726 L395.3507,-109.64356 L396.31262,-108.51713 L397.27454,-107.38794 L398.23648,-106.25601 L399.1984,-105.12133 L400.1603,-103.9839 L401.12225,-102.84373 L402.08417,-101.700806 L403.04608,-100.55514 L404.00803,-99.40672 L404.96994,-98.255554 L405.93185,-97.10165 L406.8938,-95.944984 L407.8557,-94.78558 L408.81763,-93.62343 L409.77957,-92.45853 L410.7415,-91.29088 L411.7034,-90.12048 L412.66534,-88.94734 L413.62726,-87.77145 L414.58917,-86.59281 L415.55112,-85.41142 L416.51303,-84.227295 L417.47495,-83.04041 L418.43686,-81.850784 L419.3988,-80.65841 L420.36072,-79.46329 L421.32263,-78.26542 L422.28458,-77.0648 L423.2465,-75.861435 L424.2084,-74.65532 L425.17035,-73.446465 L426.13226,-72.234856 L427.09418,-71.0205 L428.05612,-69.8034 L429.01804,-68.58355 L429.97995,-67.360954 L430.9419,-66.13561 L431.9038,-64.90752 L432.86572,-63.676678 L433.82767,-62.443092 L434.78958,-61.20676 L435.7515,-59.967678 L436.71344,-58.72585 L437.67535,-57.481274 L438.63727,-56.23395 L439.5992,-54.98388 L440.56113,-53.73106 L441.52304,-52.475494 L442.48495,-51.217182 L443.4469,-49.956123 L444.4088,-48.692314 L445.37073,-47.42576 L446.33267,-46.156456 L447.2946,-44.884407 L448.2565,-43.609608 L449.21844,-42.332066 L450.18036,-41.051773 L451.14227,-39.768734 L452.10422,-38.482944 L453.06613,-37.194412 L454.02805,-35.90313 L454.99,-34.6091 L455.9519,-33.312325 L456.91382,-32.0128 L457.87576,-30.710527 L458.83768,-29.40551 L459.7996,-28.097744 L460.76154,-26.78723 L461.72345,-25.473969 L462.68536,-24.157959 L463.6473,-22.839205 L464.60922,-21.5177 L465.57114,-20.193449 L466.53308,-18.866451 L467.495,-17.536707 L468.4569,-16.204214 L469.41882,-14.868973 L470.38077,-13.530985 L471.34268,-12.19025 L472.3046,-10.846767 L473.26654,-9.500537 L474.22845,-8.15156 L475.19037,-6.799835 L476.1523,-5.445363 L477.11423,-4.0881433 L478.07614,-2.7281764 L479.0381,-1.3654618 L480,-0" fill="none" stroke="burlywood" stroke-linejoin="round" stroke-width="2"/>
</g>
</g>
<g>
<g>
<line stroke="black" stroke-width="1" x1="0" x2="0" y1="0" y2="10"/>
<line stroke="black" stroke-width="1" x1="96.19238476953907" x2="96.19238476953907" y1="0" y2="10"/>
<line stroke="black" stroke-width="1" x1="192.38476953907815" x2="192.38476953907815" y1="0" y2="10"/>
<line stroke="black" stroke-width="1" x1="288.57715430861725" x2="288.57715430861725" y1="0" y2="10"/>
<line stroke="black" stroke-width="1" x1="384.7695390781563" x2="384.7695390781563" y1="0" y2="10"/>
</g>
<line stroke="black" stroke-width="1" x1="0" x2="480" y1="0" y2="0"/>
<g>
<text font-size="12" text-anchor="middle" x="0" y="20">
0
</text>
<text font-size="12" text-anchor="middle" x="96.19238476953907" y="20">
100
</text>
<text font-size="12" text-anchor="middle" x="192.38476953907815" y="20">
200
</text>
<text font-size="12" text-anchor="middle" x="288.57715430861725" y="20">
300
</text>
<text font-size="12" text-anchor="middle" x="384.7695390781563" y="20">
400
</text>
</g>
<text font-size="12" text-anchor="middle" x="240" y="30">

</text>
</g>
<g>
<g>
<line stroke="black" stroke-width="1" x1="0" x2="-10" y1="-65.25643822776013" y2="-65.25643822776013"/>
<line stroke="black" stroke-width="1" x1="0" x2="-10" y1="-133.94164181878418" y2="-133.94164181878418"/>
<line stroke="black" stroke-width="1" x1="0" x2="-10" y1="-202.62684540980825" y2="-202.62684540980825"/>
<line stroke="black" stroke-width="1" x1="0" x2="-10" y1="-271.3120490008323" y2="-271.3120490008323"/>
<line stroke="black" stroke-width="1" x1="0" x2="-10" y1="-339.99725259185635" y2="-339.99725259185635"/>
</g>
<line stroke="black" stroke-width="1" x1="0" x2="0" y1="0" y2="-340"/>
<g>
<text dominant-baseline="middle" font-size="12" text-anchor="end" x="-15" y="-65.25643822776013">
-200000
</text>
<text dominant-baseline="middle" font-size="12" text-anchor="end" x="-15" y="-133.94164181878418">
-150000
</text>
<text dominant-baseline="middle" font-size="12" text-anchor="end" x="-15" y="-202.62684540980825">
-100000
</text>
<text dominant-baseline="middle" font-size="12" text-anchor="end" x="-15" y="-271.3120490008323">
-50000
</text>
<text dominant-baseline="middle" font-size="12" text-anchor="end" x="-15" y="-339.99725259185635">
0
</text>
</g>
<text font-size="12" text-anchor="middle" transform="rotate(-90 -84 -170)" x="-84" y="-182">

</text>
</g>
</g>
</svg>