<svg viewBox="0 0 600 400" xmlns="http://www.w3.org/2000/svg">
<g transform="translate(72, 364)">
<g>
<g>
<path d="M0,-120.26371 L0,-120.26371 L25.263159,-221.03998 L50.526318,-307.64642 L75.789474,-167.35097 L101.052635,-0 L126.31579,-177.90988 L151.57895,-27.269447 L176.8421,-295.2118 L202.10527,-340 L227.36842,-329.205 L252.63158,-84.71214 L277.89474,-161.13715 L303.1579,-130.76225 L328.42105,-338.26868 L353.6842,-277.5664 L378.94736,-107.43341 L404.21054,-150.47714 L429.4737,-29.636253 L454.73685,-21.262762 L480,-256.98016" fill="none" stroke="burlywood" stroke-linejoin="round" stroke-width="2"/>
</g>
</g>
<g>
<g>
<line stroke="black" stroke-width="1" x1="0" x2="0" y1="0" y2="10"/>
<line stroke="black" stroke-width="1" x1="101.05263157894737" x2="101.05263157894737" y1="0" y2="10"/>
<line stroke="black" stroke-width="1" x1="202.10526315789474" x2="202.10526315789474" y1="0" y2="10"/>
<line stroke="black" stroke-width="1" x1="303.1578947368421" x2="303.1578947368421" y1="0" y2="10"/>
<line stroke="black" stroke-width="1" x1="404.2105263157895" x2="404.2105263157895" y1="0" y2="10"/>
</g>
<line stroke="black" stroke-width="1" x1="0" x2="480" y1="0" y2="0"/>
<g>
<text font-size="12" text-anchor="middle" x="0" y="20">
0
</text>
<text font-size="12" text-anchor="middle" x="101.05263157894737" y="20">
4
</text>
<text font-size="12" text-anchor="middle" x="202.10526315789474" y="20">
8
</text>
<text font-size="12" text-anchor="middle" x="303.1578947368421" y="20">
12
</text>
<text font-size="12" text-anchor="middle" x="404.2105263157895" y="20">
16
</text>
</g>
<text font-size="12" text-anchor="middle" x="240" y="30">

</text>
</g>
<g>
<g>
<line stroke="black" stroke-width="1" x1="0" x2="-10" y1="0.0010877566668688122" y2="0.0010877566668688122"/>
<line stroke="black" stroke-width="1" x1="0" x2="-10" y1="-72.86560503244414" y2="-72.86560503244414"/>
<line stroke="black" stroke-width="1" x1="0" x2="-10" y1="-145.73229782155514" y2="-145.73229782155514"/>
<line stroke="black" stroke-width="1" x1="0" x2="-10" y1="-218.5989906106662" y2="-218.5989906106662"/>
<line stroke="black" stroke-width="1" x1="0" x2="-10" y1="-291.46568339977716" y2="-291.46568339977716"/>
</g>
<line stroke="black" stroke-width="1" x1="0" x2="0" y1="0" y2="-340"/>
<g>
<text dominant-baseline="middle" font-size="12" text-anchor="end" x="-15" y="0.0010877566668688122">
0.00113
</text>
<text dominant-baseline="middle" font-size="12" text-anchor="end" x="-15" y="-72.86560503244414">
0.20113
</text>
<text dominant-baseline="middle" font-size="12" text-anchor="end" x="-15" y="-145.73229782155514">
0.40113
</text>
<text dominant-baseline="middle" font-size="12" text-anchor="end" x="-15" y="-218.5989906106662">
0.60113
</text>
<text dominant-baseline="middle" font-size="12" text-anchor="end" x="-15" y="-291.46568339977716">
0.80113
</text>
</g>
<text font-size="12" text-anchor="middle" transform="rotate(-90 -84 -170)" x="-84" y="-182">

</text>
</g>
</g>
</svg>