<svg viewBox="0 0 600 400" xmlns="http://www.w3.org/2000/svg">
<g transform="translate(72, 364)">
<g>
<g>
<rect fill="#DD3355" height="10" width="10" x="-5" y="-125.26371365076724"/>
<rect fill="#DD3355" height="10" width="10" x="20.263157894736842" y="-226.0399817557637"/>
<rect fill="#DD3355" height="10" width="10" x="45.526315789473685" y="-312.6464142821091"/>
<rect fill="#DD3355" height="10" width="10" x="70.78947368421052" y="-172.35096303264055"/>
<rect fill="#DD3355" height="10" width="10" x="96.05263157894737" y="-5"/>
<rect fill="#DD3355" height="10" width="10" x="121.3157894736842" y="-182.90988074094196"/>
<rect fill="#DD3355" height="10" width="10" x="146.57894736842104" y="-32.26944808401866"/>
<rect fill="#DD3355" height="10" width="10" x="171.8421052631579" y="-300.2117833443111"/>
<rect fill="#DD3355" height="10" width="10" x="197.10526315789474" y="-345"/>
<rect fill="#DD3355" height="10" width="10" x="222.3684210526316" y="-334.2049874430672"/>
<rect fill="#DD3355" height="10" width="10" x="247.6315789473684" y="-89.7121428885359"/>
<rect fill="#DD3355" height="10" width="10" x="272.89473684210526" y="-166.137152809441"/>
<rect fill="#DD3355" height="10" width="10" x="298.1578947368421" y="-135.76225890843278"/>
<rect fill="#DD3355" height="10" width="10" x="323.42105263157896" y="-343.2686856470514"/>
<rect fill="#DD3355" height="10" width="10" x="348.6842105263158" y="-282.56639767241666"/>
<rect fill="#DD3355" height="10" width="10" x="373.94736842105266" y="-112.4334069360738"/>
<rect fill="#DD3355" height="10" width="10" x="399.2105263157895" y="-155.47714041554357"/>
<rect fill="#DD3355" height="10" width="10" x="424.4736842105263" y="-34.6362528101268"/>
<rect fill="#DD3355" height="10" width="10" x="449.7368421052632" y="-26.26276171459031"/>
<rect fill="#DD3355" height="10" width="10" x="475" y="-261.98017024755325"/>
</g>
</g>
<g>
<g>
<line stroke="black" stroke-width="1" x1="0" x2="0" y1="0" y2="10"/>
<line stroke="black" stroke-width="1" x1="101.05263157894737" x2="101.05263157894737" y1="0" y2="10"/>
<line stroke="black" stroke-width="1" x1="202.10526315789474" x2="202.10526315789474" y1="0" y2="10"/>
<line stroke="black" stroke-width="1" x1="303.1578947368421" x2="303.1578947368421" y1="0" y2="10"/>
<line stroke="black" stroke-width="1" x1="404.2105263157895" x2="404.2105263157895" y1="0" y2="10"/>
</g>
<line stroke="black" stroke-width="1" x1="0" x2="480" y1="0" y2="0"/>
<g>
<text font-size="12" text-anchor="middle" x="0" y="20">
0
</text>
<text font-size="12" text-anchor="middle" x="101.05263157894737" y="20">
4
</text>
<text font-size="12" text-anchor="middle" x="202.10526315789474" y="20">
8
</text>
<text font-size="12" text-anchor="middle" x="303.1578947368421" y="20">
12
</text>
<text font-size="12" text-anchor="middle" x="404.2105263157895" y="20">
16
</text>
</g>
<text font-size="12" text-anchor="middle" x="240" y="30">

</text>
</g>
<g>
<g>
<line stroke="black" stroke-width="1" x1="0" x2="-10" y1="0.0010877566668688122" y2="0.0010877566668688122"/>
<line stroke="black" stroke-width="1" x1="0" x2="-10" y1="-72.86560503244414" y2="-72.86560503244414"/>
<line stroke="black" stroke-width="1" x1="0" x2="-10" y1="-145.73229782155514" y2="-145.73229782155514"/>
<line stroke="black" stroke-width="1" x1="0" x2="-10" y1="-218.5989906106662" y2="-218.5989906106662"/>
<line stroke="black" stroke-width="1" x1="0" x2="-10" y1="-291.46568339977716" y2="-291.46568339977716"/>
</g>
<line stroke="black" stroke-width="1" x1="0" x2="0" y1="0" y2="-340"/>
<g>
<text dominant-baseline="middle" font-size="12" text-anchor="end" x="-15" y="0.0010877566668688122">
0.00113
</text>
<text dominant-baseline="middle" font-size="12" text-anchor="end" x="-15" y="-72.86560503244414">
0.20113
</text>
<text dominant-baseline="middle" font-size="12" text-anchor="end" x="-15" y="-145.73229782155514">
0.40113
</text>
<text dominant-baseline="middle" font-size="12" text-anchor="end" x="-15" y="-218.5989906106662">
0.60113
</text>
<text dominant-baseline="middle" font-size="12" text-anchor="end" x="-15" y="-291.46568339977716">
0.80113
</text>
</g>
<text font-size="12" text-anchor="middle" transform="rotate(-90 -84 -170)" x="-84" y="-182">

</text>
</g>
</g>
</svg>