<svg viewBox="0 0 600 400" xmlns="http://www.w3.org/2000/svg">
<g transform="translate(72, 364)">
<g>
<g>
<rect fill="#DD3355" height="10" width="10" x="-5" y="-344.99725259185635"/>
<rect fill="#DD3355" height="10" width="10" x="-4.038076152304609" y="-345"/>
<rect fill="#DD3355" height="10" width="10" x="-3.0761523046092183" y="-345"/>
<rect fill="#DD3355" height="10" width="10" x="-2.1142284569138274" y="-344.99725259185635"/>
<rect fill="#DD3355" height="10" width="10" x="-1.152304609218437" y="-344.99175777556906"/>
<rect fill="#DD3355" height="10" width="10" x="-0.19038076152304573" y="-344.98351555113817"/>
<rect fill="#DD3355" height="10" width="10" x="0.7715430861723451" y="-344.9725259185636"/>
<rect fill="#DD3355" height="10" width="10" x="1.733466933867735" y="-344.9587888778454"/>
<rect fill="#DD3355" height="10" width="10" x="2.695390781563126" y="-344.94230442898356"/>
<rect fill="#DD3355" height="10" width="10" x="3.657314629258517" y="-344.923072571978"/>
<rect fill="#DD3355" height="10" width="10" x="4.6192384769539085" y="-344.9010933068289"/>
<rect fill="#DD3355" height="10" width="10" x="5.5811623246492985" y="-344.8763666335362"/>
<rect fill="#DD3355" height="10" width="10" x="6.54308617234469" y="-344.84889255209976"/>
<rect fill="#DD3355" height="10" width="10" x="7.50501002004008" y="-344.8186710625197"/>
<rect fill="#DD3355" height="10" width="10" x="8.46693386773547" y="-344.785702164796"/>
<rect fill="#DD3355" height="10" width="10" x="9.428857715430862" y="-344.74998585892865"/>
<rect fill="#DD3355" height="10" width="10" x="10.390781563126252" y="-344.7115221449177"/>
<rect fill="#DD3355" height="10" width="10" x="11.352705410821642" y="-344.6703110227631"/>
<rect fill="#DD3355" height="10" width="10" x="12.314629258517034" y="-344.62635249246483"/>
<rect fill="#DD3355" height="10" width="10" x="13.276553106212425" y="-344.57964655402293"/>
<rect fill="#DD3355" height="10" width="10" x="14.238476953907817" y="-344.5301932074374"/>
<rect fill="#DD3355" height="10" width="10" x="15.200400801603205" y="-344.47799245270824"/>
<rect fill="#DD3355" height="10" width="10" x="16.162324649298597" y="-344.4230442898354"/>
<rect fill="#DD3355" height="10" width="10" x="17.12424849699399" y="-344.36534871881895"/>
<rect fill="#DD3355" height="10" width="10" x="18.08617234468938" y="-344.30490573965886"/>
<rect fill="#DD3355" height="10" width="10" x="19.04809619238477" y="-344.2417153523551"/>
<rect fill="#DD3355" height="10" width="10" x="20.01002004008016" y="-344.1757775569077"/>
<rect fill="#DD3355" height="10" width="10" x="20.971943887775552" y="-344.10709235331666"/>
<rect fill="#DD3355" height="10" width="10" x="21.93386773547094" y="-344.03565974158204"/>
<rect fill="#DD3355" height="10" width="10" x="22.895791583166332" y="-343.9614797217037"/>
<rect fill="#DD3355" height="10" width="10" x="23.857715430861724" y="-343.8845522936818"/>
<rect fill="#DD3355" height="10" width="10" x="24.819639278557116" y="-343.80487745751617"/>
<rect fill="#DD3355" height="10" width="10" x="25.781563126252504" y="-343.72245521320696"/>
<rect fill="#DD3355" height="10" width="10" x="26.743486973947896" y="-343.6372855607541"/>
<rect fill="#DD3355" height="10" width="10" x="27.705410821643284" y="-343.5493685001576"/>
<rect fill="#DD3355" height="10" width="10" x="28.66733466933868" y="-343.4587040314174"/>
<rect fill="#DD3355" height="10" width="10" x="29.629258517034067" y="-343.3652921545336"/>
<rect fill="#DD3355" height="10" width="10" x="30.591182364729455" y="-343.26913286950617"/>
<rect fill="#DD3355" height="10" width="10" x="31.55310621242485" y="-343.1702261763351"/>
<rect fill="#DD3355" height="10" width="10" x="32.51503006012024" y="-343.0685720750204"/>
<rect fill="#DD3355" height="10" width="10" x="33.476953907815634" y="-342.96417056556203"/>
<rect fill="#DD3355" height="10" width="10" x="34.43887775551102" y="-342.85702164796004"/>
<rect fill="#DD3355" height="10" width="10" x="35.40080160320641" y="-342.7471253222144"/>
<rect fill="#DD3355" height="10" width="10" x="36.362725450901806" y="-342.6344815883251"/>
<rect fill="#DD3355" height="10" width="10" x="37.324649298597194" y="-342.51909044629224"/>
<rect fill="#DD3355" height="10" width="10" x="38.28657314629258" y="-342.40095189611566"/>
<rect fill="#DD3355" height="10" width="10" x="39.24849699398798" y="-342.2800659377954"/>
<rect fill="#DD3355" height="10" width="10" x="40.210420841683366" y="-342.1564325713316"/>
<rect fill="#DD3355" height="10" width="10" x="41.17234468937876" y="-342.03005179672414"/>
<rect fill="#DD3355" height="10" width="10" x="42.13426853707415" y="-341.900923613973"/>
<rect fill="#DD3355" height="10" width="10" x="43.09619238476954" y="-341.76904802307826"/>
<rect fill="#DD3355" height="10" width="10" x="44.05811623246493" y="-341.63442502403984"/>
<rect fill="#DD3355" height="10" width="10" x="45.02004008016032" y="-341.4970546168578"/>
<rect fill="#DD3355" height="10" width="10" x="45.98196392785571" y="-341.3569368015321"/>
<rect fill="#DD3355" height="10" width="10" x="46.943887775551104" y="-341.21407157806277"/>
<rect fill="#DD3355" height="10" width="10" x="47.90581162324649" y="-341.06845894644977"/>
<rect fill="#DD3355" height="10" width="10" x="48.86773547094188" y="-340.92009890669317"/>
<rect fill="#DD3355" height="10" width="10" x="49.829659318637276" y="-340.7689914587929"/>
<rect fill="#DD3355" height="10" width="10" x="50.791583166332664" y="-340.61513660274903"/>
<rect fill="#DD3355" height="10" width="10" x="51.75350701402806" y="-340.4585343385615"/>
<rect fill="#DD3355" height="10" width="10" x="52.71543086172345" y="-340.2991846662303"/>
<rect fill="#DD3355" height="10" width="10" x="53.677354709418836" y="-340.1370875857555"/>
<rect fill="#DD3355" height="10" width="10" x="54.63927855711423" y="-339.97224309713704"/>
<rect fill="#DD3355" height="10" width="10" x="55.60120240480962" y="-339.80465120037496"/>
<rect fill="#DD3355" height="10" width="10" x="56.56312625250501" y="-339.6343118954692"/>
<rect fill="#DD3355" height="10" width="10" x="57.5250501002004" y="-339.4612251824198"/>
<rect fill="#DD3355" height="10" width="10" x="58.48697394789579" y="-339.2853910612268"/>
<rect fill="#DD3355" height="10" width="10" x="59.44889779559118" y="-339.1068095318901"/>
<rect fill="#DD3355" height="10" width="10" x="60.41082164328657" y="-338.9254805944098"/>
<rect fill="#DD3355" height="10" width="10" x="61.37274549098197" y="-338.7414042487859"/>
<rect fill="#DD3355" height="10" width="10" x="62.33466933867736" y="-338.5545804950183"/>
<rect fill="#DD3355" height="10" width="10" x="63.296593186372746" y="-338.3650093331071"/>
<rect fill="#DD3355" height="10" width="10" x="64.25851703406813" y="-338.17269076305223"/>
<rect fill="#DD3355" height="10" width="10" x="65.22044088176352" y="-337.9776247848537"/>
<rect fill="#DD3355" height="10" width="10" x="66.18236472945891" y="-337.7798113985115"/>
<rect fill="#DD3355" height="10" width="10" x="67.14428857715431" y="-337.5792506040258"/>
<rect fill="#DD3355" height="10" width="10" x="68.1062124248497" y="-337.37594240139634"/>
<rect fill="#DD3355" height="10" width="10" x="69.06813627254509" y="-337.16988679062325"/>
<rect fill="#DD3355" height="10" width="10" x="70.03006012024048" y="-336.96108377170657"/>
<rect fill="#DD3355" height="10" width="10" x="70.99198396793587" y="-336.7495333446462"/>
<rect fill="#DD3355" height="10" width="10" x="71.95390781563127" y="-336.5352355094422"/>
<rect fill="#DD3355" height="10" width="10" x="72.91583166332666" y="-336.3181902660946"/>
<rect fill="#DD3355" height="10" width="10" x="73.87775551102204" y="-336.0983976146033"/>
<rect fill="#DD3355" height="10" width="10" x="74.83967935871743" y="-335.8758575549684"/>
<rect fill="#DD3355" height="10" width="10" x="75.80160320641282" y="-335.6505700871898"/>
<rect fill="#DD3355" height="10" width="10" x="76.76352705410822" y="-335.4225352112676"/>
<rect fill="#DD3355" height="10" width="10" x="77.72545090180361" y="-335.1917529272018"/>
<rect fill="#DD3355" height="10" width="10" x="78.687374749499" y="-334.95822323499226"/>
<rect fill="#DD3355" height="10" width="10" x="79.64929859719439" y="-334.72194613463915"/>
<rect fill="#DD3355" height="10" width="10" x="80.61122244488978" y="-334.4829216261424"/>
<rect fill="#DD3355" height="10" width="10" x="81.57314629258516" y="-334.241149709502"/>
<rect fill="#DD3355" height="10" width="10" x="82.53507014028057" y="-333.99663038471795"/>
<rect fill="#DD3355" height="10" width="10" x="83.49699398797596" y="-333.74936365179025"/>
<rect fill="#DD3355" height="10" width="10" x="84.45891783567134" y="-333.49934951071896"/>
<rect fill="#DD3355" height="10" width="10" x="85.42084168336673" y="-333.24658796150396"/>
<rect fill="#DD3355" height="10" width="10" x="86.38276553106212" y="-332.9910790041454"/>
<rect fill="#DD3355" height="10" width="10" x="87.34468937875752" y="-332.7328226386431"/>
<rect fill="#DD3355" height="10" width="10" x="88.30661322645291" y="-332.4718188649972"/>
<rect fill="#DD3355" height="10" width="10" x="89.2685370741483" y="-332.2080676832077"/>
<rect fill="#DD3355" height="10" width="10" x="90.23046092184369" y="-331.9415690932745"/>
<rect fill="#DD3355" height="10" width="10" x="91.19238476953907" y="-331.67232309519767"/>
<rect fill="#DD3355" height="10" width="10" x="92.15430861723446" y="-331.40032968897725"/>
<rect fill="#DD3355" height="10" width="10" x="93.11623246492987" y="-331.12558887461313"/>
<rect fill="#DD3355" height="10" width="10" x="94.07815631262525" y="-330.8481006521054"/>
<rect fill="#DD3355" height="10" width="10" x="95.04008016032064" y="-330.567865021454"/>
<rect fill="#DD3355" height="10" width="10" x="96.00200400801603" y="-330.284881982659"/>
<rect fill="#DD3355" height="10" width="10" x="96.96392785571142" y="-329.99915153572033"/>
<rect fill="#DD3355" height="10" width="10" x="97.92585170340682" y="-329.710673680638"/>
<rect fill="#DD3355" height="10" width="10" x="98.88777555110221" y="-329.4194484174121"/>
<rect fill="#DD3355" height="10" width="10" x="99.8496993987976" y="-329.1254757460425"/>
<rect fill="#DD3355" height="10" width="10" x="100.81162324649299" y="-328.8287556665293"/>
<rect fill="#DD3355" height="10" width="10" x="101.77354709418837" y="-328.52928817887243"/>
<rect fill="#DD3355" height="10" width="10" x="102.73547094188376" y="-328.22707328307195"/>
<rect fill="#DD3355" height="10" width="10" x="103.69739478957916" y="-327.92211097912775"/>
<rect fill="#DD3355" height="10" width="10" x="104.65931863727455" y="-327.61440126703997"/>
<rect fill="#DD3355" height="10" width="10" x="105.62124248496994" y="-327.3039441468086"/>
<rect fill="#DD3355" height="10" width="10" x="106.58316633266533" y="-326.9907396184335"/>
<rect fill="#DD3355" height="10" width="10" x="107.54509018036072" y="-326.6747876819148"/>
<rect fill="#DD3355" height="10" width="10" x="108.50701402805612" y="-326.35608833725246"/>
<rect fill="#DD3355" height="10" width="10" x="109.46893787575151" y="-326.03464158444643"/>
<rect fill="#DD3355" height="10" width="10" x="110.4308617234469" y="-325.7104474234968"/>
<rect fill="#DD3355" height="10" width="10" x="111.39278557114228" y="-325.38350585440355"/>
<rect fill="#DD3355" height="10" width="10" x="112.35470941883767" y="-325.05381687716664"/>
<rect fill="#DD3355" height="10" width="10" x="113.31663326653306" y="-324.7213804917861"/>
<rect fill="#DD3355" height="10" width="10" x="114.27855711422846" y="-324.38619669826187"/>
<rect fill="#DD3355" height="10" width="10" x="115.24048096192385" y="-324.048265496594"/>
<rect fill="#DD3355" height="10" width="10" x="116.20240480961924" y="-323.70758688678256"/>
<rect fill="#DD3355" height="10" width="10" x="117.16432865731463" y="-323.3641608688274"/>
<rect fill="#DD3355" height="10" width="10" x="118.12625250501002" y="-323.01798744272867"/>
<rect fill="#DD3355" height="10" width="10" x="119.08817635270542" y="-322.6690666084863"/>
<rect fill="#DD3355" height="10" width="10" x="120.0501002004008" y="-322.31739836610024"/>
<rect fill="#DD3355" height="10" width="10" x="121.0120240480962" y="-321.96298271557055"/>
<rect fill="#DD3355" height="10" width="10" x="121.97394789579158" y="-321.6058196568972"/>
<rect fill="#DD3355" height="10" width="10" x="122.93587174348697" y="-321.2459091900802"/>
<rect fill="#DD3355" height="10" width="10" x="123.89779559118236" y="-320.88325131511965"/>
<rect fill="#DD3355" height="10" width="10" x="124.85971943887776" y="-320.51784603201537"/>
<rect fill="#DD3355" height="10" width="10" x="125.82164328657313" y="-320.1496933407675"/>
<rect fill="#DD3355" height="10" width="10" x="126.78356713426854" y="-319.778793241376"/>
<rect fill="#DD3355" height="10" width="10" x="127.74549098196394" y="-319.4051457338408"/>
<rect fill="#DD3355" height="10" width="10" x="128.7074148296593" y="-319.028750818162"/>
<rect fill="#DD3355" height="10" width="10" x="129.66933867735472" y="-318.64960849433953"/>
<rect fill="#DD3355" height="10" width="10" x="130.6312625250501" y="-318.2677187623734"/>
<rect fill="#DD3355" height="10" width="10" x="131.5931863727455" y="-317.8830816222637"/>
<rect fill="#DD3355" height="10" width="10" x="132.5551102204409" y="-317.4956970740103"/>
<rect fill="#DD3355" height="10" width="10" x="133.51703406813627" y="-317.1055651176133"/>
<rect fill="#DD3355" height="10" width="10" x="134.47895791583167" y="-316.71268575307266"/>
<rect fill="#DD3355" height="10" width="10" x="135.44088176352705" y="-316.31705898038837"/>
<rect fill="#DD3355" height="10" width="10" x="136.40280561122245" y="-315.9186847995604"/>
<rect fill="#DD3355" height="10" width="10" x="137.36472945891782" y="-315.51756321058883"/>
<rect fill="#DD3355" height="10" width="10" x="138.32665330661322" y="-315.1136942134736"/>
<rect fill="#DD3355" height="10" width="10" x="139.28857715430863" y="-314.70707780821476"/>
<rect fill="#DD3355" height="10" width="10" x="140.250501002004" y="-314.2977139948122"/>
<rect fill="#DD3355" height="10" width="10" x="141.2124248496994" y="-313.8856027732661"/>
<rect fill="#DD3355" height="10" width="10" x="142.17434869739478" y="-313.4707441435763"/>
<rect fill="#DD3355" height="10" width="10" x="143.13627254509018" y="-313.0531381057429"/>
<rect fill="#DD3355" height="10" width="10" x="144.09819639278558" y="-312.63278465976583"/>
<rect fill="#DD3355" height="10" width="10" x="145.06012024048096" y="-312.2096838056451"/>
<rect fill="#DD3355" height="10" width="10" x="146.02204408817636" y="-311.78383554338075"/>
<rect fill="#DD3355" height="10" width="10" x="146.98396793587173" y="-311.3552398729728"/>
<rect fill="#DD3355" height="10" width="10" x="147.94589178356713" y="-310.9238967944211"/>
<rect fill="#DD3355" height="10" width="10" x="148.90781563126254" y="-310.48980630772587"/>
<rect fill="#DD3355" height="10" width="10" x="149.8697394789579" y="-310.05296841288697"/>
<rect fill="#DD3355" height="10" width="10" x="150.8316633266533" y="-309.6133831099044"/>
<rect fill="#DD3355" height="10" width="10" x="151.7935871743487" y="-309.1710503987782"/>
<rect fill="#DD3355" height="10" width="10" x="152.7555110220441" y="-308.7259702795084"/>
<rect fill="#DD3355" height="10" width="10" x="153.7174348697395" y="-308.2781427520949"/>
<rect fill="#DD3355" height="10" width="10" x="154.67935871743487" y="-307.8275678165378"/>
<rect fill="#DD3355" height="10" width="10" x="155.64128256513027" y="-307.374245472837"/>
<rect fill="#DD3355" height="10" width="10" x="156.60320641282564" y="-306.9181757209926"/>
<rect fill="#DD3355" height="10" width="10" x="157.56513026052104" y="-306.4593585610046"/>
<rect fill="#DD3355" height="10" width="10" x="158.52705410821645" y="-305.9977939928729"/>
<rect fill="#DD3355" height="10" width="10" x="159.48897795591182" y="-305.5334820165976"/>
<rect fill="#DD3355" height="10" width="10" x="160.45090180360722" y="-305.0664226321786"/>
<rect fill="#DD3355" height="10" width="10" x="161.4128256513026" y="-304.596615839616"/>
<rect fill="#DD3355" height="10" width="10" x="162.374749498998" y="-304.1240616389098"/>
<rect fill="#DD3355" height="10" width="10" x="163.33667334669337" y="-303.64876003005986"/>
<rect fill="#DD3355" height="10" width="10" x="164.29859719438878" y="-303.17071101306635"/>
<rect fill="#DD3355" height="10" width="10" x="165.26052104208418" y="-302.6899145879292"/>
<rect fill="#DD3355" height="10" width="10" x="166.22244488977955" y="-302.2063707546484"/>
<rect fill="#DD3355" height="10" width="10" x="167.18436873747495" y="-301.72007951322394"/>
<rect fill="#DD3355" height="10" width="10" x="168.14629258517033" y="-301.23104086365583"/>
<rect fill="#DD3355" height="10" width="10" x="169.10821643286573" y="-300.7392548059441"/>
<rect fill="#DD3355" height="10" width="10" x="170.07014028056113" y="-300.24472134008874"/>
<rect fill="#DD3355" height="10" width="10" x="171.0320641282565" y="-299.7474404660897"/>
<rect fill="#DD3355" height="10" width="10" x="171.9939879759519" y="-299.24741218394706"/>
<rect fill="#DD3355" height="10" width="10" x="172.95591182364728" y="-298.7446364936608"/>
<rect fill="#DD3355" height="10" width="10" x="173.9178356713427" y="-298.23911339523085"/>
<rect fill="#DD3355" height="10" width="10" x="174.8797595190381" y="-297.73084288865726"/>
<rect fill="#DD3355" height="10" width="10" x="175.84168336673346" y="-297.21982497394004"/>
<rect fill="#DD3355" height="10" width="10" x="176.80360721442887" y="-296.70605965107916"/>
<rect fill="#DD3355" height="10" width="10" x="177.76553106212424" y="-296.1895469200747"/>
<rect fill="#DD3355" height="10" width="10" x="178.72745490981964" y="-295.6702867809265"/>
<rect fill="#DD3355" height="10" width="10" x="179.68937875751504" y="-295.14827923363475"/>
<rect fill="#DD3355" height="10" width="10" x="180.65130260521042" y="-294.62352427819934"/>
<rect fill="#DD3355" height="10" width="10" x="181.61322645290582" y="-294.0960219146202"/>
<rect fill="#DD3355" height="10" width="10" x="182.5751503006012" y="-293.5657721428976"/>
<rect fill="#DD3355" height="10" width="10" x="183.5370741482966" y="-293.0327749630312"/>
<rect fill="#DD3355" height="10" width="10" x="184.49899799599197" y="-292.4970303750212"/>
<rect fill="#DD3355" height="10" width="10" x="185.46092184368737" y="-291.95853837886756"/>
<rect fill="#DD3355" height="10" width="10" x="186.42284569138278" y="-291.4172989745703"/>
<rect fill="#DD3355" height="10" width="10" x="187.38476953907815" y="-290.8733121621294"/>
<rect fill="#DD3355" height="10" width="10" x="188.34669338677355" y="-290.3265779415448"/>
<rect fill="#DD3355" height="10" width="10" x="189.30861723446893" y="-289.77709631281664"/>
<rect fill="#DD3355" height="10" width="10" x="190.27054108216433" y="-289.2248672759448"/>
<rect fill="#DD3355" height="10" width="10" x="191.23246492985973" y="-288.6698908309294"/>
<rect fill="#DD3355" height="10" width="10" x="192.1943887775551" y="-288.11216697777024"/>
<rect fill="#DD3355" height="10" width="10" x="193.1563126252505" y="-287.55169571646746"/>
<rect fill="#DD3355" height="10" width="10" x="194.11823647294588" y="-286.9884770470211"/>
<rect fill="#DD3355" height="10" width="10" x="195.08016032064128" y="-286.422510969431"/>
<rect fill="#DD3355" height="10" width="10" x="196.0420841683367" y="-285.85379748369735"/>
<rect fill="#DD3355" height="10" width="10" x="197.00400801603206" y="-285.28233658982003"/>
<rect fill="#DD3355" height="10" width="10" x="197.96593186372746" y="-284.70812828779907"/>
<rect fill="#DD3355" height="10" width="10" x="198.92785571142284" y="-284.13117257763446"/>
<rect fill="#DD3355" height="10" width="10" x="199.88977955911824" y="-283.55146945932626"/>
<rect fill="#DD3355" height="10" width="10" x="200.85170340681364" y="-282.96901893287435"/>
<rect fill="#DD3355" height="10" width="10" x="201.81362725450902" y="-282.38382099827885"/>
<rect fill="#DD3355" height="10" width="10" x="202.77555110220442" y="-281.79587565553965"/>
<rect fill="#DD3355" height="10" width="10" x="203.7374749498998" y="-281.20518290465685"/>
<rect fill="#DD3355" height="10" width="10" x="204.6993987975952" y="-280.6117427456304"/>
<rect fill="#DD3355" height="10" width="10" x="205.66132264529057" y="-280.0155551784603"/>
<rect fill="#DD3355" height="10" width="10" x="206.62324649298597" y="-279.4166202031466"/>
<rect fill="#DD3355" height="10" width="10" x="207.58517034068137" y="-278.8149378196892"/>
<rect fill="#DD3355" height="10" width="10" x="208.54709418837675" y="-278.2105080280882"/>
<rect fill="#DD3355" height="10" width="10" x="209.50901803607215" y="-277.60333082834353"/>
<rect fill="#DD3355" height="10" width="10" x="210.47094188376752" y="-276.99340622045526"/>
<rect fill="#DD3355" height="10" width="10" x="211.43286573146293" y="-276.38073420442333"/>
<rect fill="#DD3355" height="10" width="10" x="212.39478957915833" y="-275.76531478024776"/>
<rect fill="#DD3355" height="10" width="10" x="213.3567134268537" y="-275.14714794792854"/>
<rect fill="#DD3355" height="10" width="10" x="214.3186372745491" y="-274.5262337074657"/>
<rect fill="#DD3355" height="10" width="10" x="215.28056112224448" y="-273.90257205885916"/>
<rect fill="#DD3355" height="10" width="10" x="216.24248496993988" y="-273.27616300210906"/>
<rect fill="#DD3355" height="10" width="10" x="217.20440881763528" y="-272.64700653721525"/>
<rect fill="#DD3355" height="10" width="10" x="218.16633266533066" y="-272.01510266417785"/>
<rect fill="#DD3355" height="10" width="10" x="219.12825651302606" y="-271.3804513829968"/>
<rect fill="#DD3355" height="10" width="10" x="220.09018036072143" y="-270.7430526936721"/>
<rect fill="#DD3355" height="10" width="10" x="221.05210420841684" y="-270.10290659620375"/>
<rect fill="#DD3355" height="10" width="10" x="222.01402805611224" y="-269.46001309059176"/>
<rect fill="#DD3355" height="10" width="10" x="222.9759519038076" y="-268.8143721768361"/>
<rect fill="#DD3355" height="10" width="10" x="223.93787575150301" y="-268.1659838549368"/>
<rect fill="#DD3355" height="10" width="10" x="224.8997995991984" y="-267.51484812489394"/>
<rect fill="#DD3355" height="10" width="10" x="225.8617234468938" y="-266.8609649867074"/>
<rect fill="#DD3355" height="10" width="10" x="226.82364729458916" y="-266.2043344403772"/>
<rect fill="#DD3355" height="10" width="10" x="227.78557114228457" y="-265.54495648590336"/>
<rect fill="#DD3355" height="10" width="10" x="228.74749498997997" y="-264.8828311232859"/>
<rect fill="#DD3355" height="10" width="10" x="229.70941883767534" y="-264.21795835252476"/>
<rect fill="#DD3355" height="10" width="10" x="230.67134268537075" y="-263.55033817362005"/>
<rect fill="#DD3355" height="10" width="10" x="231.63326653306612" y="-262.87997058657163"/>
<rect fill="#DD3355" height="10" width="10" x="232.59519038076152" y="-262.2068555913796"/>
<rect fill="#DD3355" height="10" width="10" x="233.55711422845692" y="-261.5309931880439"/>
<rect fill="#DD3355" height="10" width="10" x="234.5190380761523" y="-260.8523833765646"/>
<rect fill="#DD3355" height="10" width="10" x="235.4809619238477" y="-260.17102615694165"/>
<rect fill="#DD3355" height="10" width="10" x="236.44288577154308" y="-259.48692152917505"/>
<rect fill="#DD3355" height="10" width="10" x="237.40480961923848" y="-258.8000694932648"/>
<rect fill="#DD3355" height="10" width="10" x="238.36673346693388" y="-258.1104700492109"/>
<rect fill="#DD3355" height="10" width="10" x="239.32865731462925" y="-257.4181231970134"/>
<rect fill="#DD3355" height="10" width="10" x="240.29058116232466" y="-256.7230289366722"/>
<rect fill="#DD3355" height="10" width="10" x="241.25250501002003" y="-256.02518726818744"/>
<rect fill="#DD3355" height="10" width="10" x="242.21442885771543" y="-255.324598191559"/>
<rect fill="#DD3355" height="10" width="10" x="243.17635270541084" y="-254.6212617067869"/>
<rect fill="#DD3355" height="10" width="10" x="244.1382765531062" y="-253.91517781387117"/>
<rect fill="#DD3355" height="10" width="10" x="245.1002004008016" y="-253.20634651281182"/>
<rect fill="#DD3355" height="10" width="10" x="246.06212424849699" y="-252.4947678036088"/>
<rect fill="#DD3355" height="10" width="10" x="247.0240480961924" y="-251.78044168626215"/>
<rect fill="#DD3355" height="10" width="10" x="247.98597194388776" y="-251.06336816077186"/>
<rect fill="#DD3355" height="10" width="10" x="248.94789579158316" y="-250.34354722713792"/>
<rect fill="#DD3355" height="10" width="10" x="249.90981963927857" y="-249.62097888536036"/>
<rect fill="#DD3355" height="10" width="10" x="250.87174348697394" y="-248.89566313543915"/>
<rect fill="#DD3355" height="10" width="10" x="251.83366733466931" y="-248.1675999773743"/>
<rect fill="#DD3355" height="10" width="10" x="252.79559118236472" y="-247.4367894111658"/>
<rect fill="#DD3355" height="10" width="10" x="253.75751503006012" y="-246.70323143681367"/>
<rect fill="#DD3355" height="10" width="10" x="254.71943887775552" y="-245.96692605431787"/>
<rect fill="#DD3355" height="10" width="10" x="255.68136272545092" y="-245.22787326367845"/>
<rect fill="#DD3355" height="10" width="10" x="256.64328657314627" y="-244.4860730648954"/>
<rect fill="#DD3355" height="10" width="10" x="257.6052104208417" y="-243.7415254579687"/>
<rect fill="#DD3355" height="10" width="10" x="258.5671342685371" y="-242.99423044289836"/>
<rect fill="#DD3355" height="10" width="10" x="259.5290581162325" y="-242.24418801968437"/>
<rect fill="#DD3355" height="10" width="10" x="260.4909819639279" y="-241.49139818832674"/>
<rect fill="#DD3355" height="10" width="10" x="261.4529058116232" y="-240.7358609488255"/>
<rect fill="#DD3355" height="10" width="10" x="262.4148296593186" y="-239.9775763011806"/>
<rect fill="#DD3355" height="10" width="10" x="263.37675350701403" y="-239.21654424539204"/>
<rect fill="#DD3355" height="10" width="10" x="264.33867735470943" y="-238.45276478145985"/>
<rect fill="#DD3355" height="10" width="10" x="265.30060120240483" y="-237.686237909384"/>
<rect fill="#DD3355" height="10" width="10" x="266.2625250501002" y="-236.91696362916454"/>
<rect fill="#DD3355" height="10" width="10" x="267.2244488977956" y="-236.14494194080143"/>
<rect fill="#DD3355" height="10" width="10" x="268.186372745491" y="-235.37017284429467"/>
<rect fill="#DD3355" height="10" width="10" x="269.1482965931864" y="-234.5926563396443"/>
<rect fill="#DD3355" height="10" width="10" x="270.1102204408818" y="-233.81239242685027"/>
<rect fill="#DD3355" height="10" width="10" x="271.07214428857714" y="-233.0293811059126"/>
<rect fill="#DD3355" height="10" width="10" x="272.03406813627254" y="-232.24362237683127"/>
<rect fill="#DD3355" height="10" width="10" x="272.99599198396794" y="-231.45511623960633"/>
<rect fill="#DD3355" height="10" width="10" x="273.95791583166334" y="-230.6638626942377"/>
<rect fill="#DD3355" height="10" width="10" x="274.91983967935874" y="-229.86986174072547"/>
<rect fill="#DD3355" height="10" width="10" x="275.8817635270541" y="-229.0731133790696"/>
<rect fill="#DD3355" height="10" width="10" x="276.8436873747495" y="-228.27361760927008"/>
<rect fill="#DD3355" height="10" width="10" x="277.8056112224449" y="-227.47137443132692"/>
<rect fill="#DD3355" height="10" width="10" x="278.7675350701403" y="-226.66638384524012"/>
<rect fill="#DD3355" height="10" width="10" x="279.72945891783564" y="-225.85864585100967"/>
<rect fill="#DD3355" height="10" width="10" x="280.69138276553105" y="-225.0481604486356"/>
<rect fill="#DD3355" height="10" width="10" x="281.65330661322645" y="-224.23492763811785"/>
<rect fill="#DD3355" height="10" width="10" x="282.61523046092185" y="-223.4189474194565"/>
<rect fill="#DD3355" height="10" width="10" x="283.57715430861725" y="-222.6002197926515"/>
<rect fill="#DD3355" height="10" width="10" x="284.5390781563126" y="-221.77874475770284"/>
<rect fill="#DD3355" height="10" width="10" x="285.501002004008" y="-220.95452231461056"/>
<rect fill="#DD3355" height="10" width="10" x="286.4629258517034" y="-220.12755246337463"/>
<rect fill="#DD3355" height="10" width="10" x="287.4248496993988" y="-219.29783520399505"/>
<rect fill="#DD3355" height="10" width="10" x="288.3867735470942" y="-218.46537053647185"/>
<rect fill="#DD3355" height="10" width="10" x="289.34869739478955" y="-217.63015846080498"/>
<rect fill="#DD3355" height="10" width="10" x="290.31062124248496" y="-216.79219897699448"/>
<rect fill="#DD3355" height="10" width="10" x="291.27254509018036" y="-215.95149208504037"/>
<rect fill="#DD3355" height="10" width="10" x="292.23446893787576" y="-215.10803778494258"/>
<rect fill="#DD3355" height="10" width="10" x="293.19639278557116" y="-214.26183607670117"/>
<rect fill="#DD3355" height="10" width="10" x="294.1583166332665" y="-213.41288696031611"/>
<rect fill="#DD3355" height="10" width="10" x="295.1202404809619" y="-212.5611904357874"/>
<rect fill="#DD3355" height="10" width="10" x="296.0821643286573" y="-211.70674650311508"/>
<rect fill="#DD3355" height="10" width="10" x="297.0440881763527" y="-210.84955516229908"/>
<rect fill="#DD3355" height="10" width="10" x="298.0060120240481" y="-209.98961641333946"/>
<rect fill="#DD3355" height="10" width="10" x="298.96793587174346" y="-209.12693025623622"/>
<rect fill="#DD3355" height="10" width="10" x="299.92985971943887" y="-208.2614966909893"/>
<rect fill="#DD3355" height="10" width="10" x="300.89178356713427" y="-207.39331571759877"/>
<rect fill="#DD3355" height="10" width="10" x="301.85370741482967" y="-206.52238733606458"/>
<rect fill="#DD3355" height="10" width="10" x="302.8156312625251" y="-205.64871154638675"/>
<rect fill="#DD3355" height="10" width="10" x="303.7775551102204" y="-204.7722883485653"/>
<rect fill="#DD3355" height="10" width="10" x="304.7394789579158" y="-203.89311774260017"/>
<rect fill="#DD3355" height="10" width="10" x="305.7014028056112" y="-203.01119972849142"/>
<rect fill="#DD3355" height="10" width="10" x="306.6633266533066" y="-202.12653430623905"/>
<rect fill="#DD3355" height="10" width="10" x="307.62525050100203" y="-201.239121475843"/>
<rect fill="#DD3355" height="10" width="10" x="308.5871743486974" y="-200.34896123730334"/>
<rect fill="#DD3355" height="10" width="10" x="309.5490981963928" y="-199.45605359062003"/>
<rect fill="#DD3355" height="10" width="10" x="310.5110220440882" y="-198.56039853579307"/>
<rect fill="#DD3355" height="10" width="10" x="311.4729458917836" y="-197.6619960728225"/>
<rect fill="#DD3355" height="10" width="10" x="312.434869739479" y="-196.76084620170823"/>
<rect fill="#DD3355" height="10" width="10" x="313.39679358717433" y="-195.85694892245036"/>
<rect fill="#DD3355" height="10" width="10" x="314.35871743486973" y="-194.95030423504886"/>
<rect fill="#DD3355" height="10" width="10" x="315.32064128256513" y="-194.0409121395037"/>
<rect fill="#DD3355" height="10" width="10" x="316.28256513026054" y="-193.1287726358149"/>
<rect fill="#DD3355" height="10" width="10" x="317.24448897795594" y="-192.21388572398246"/>
<rect fill="#DD3355" height="10" width="10" x="318.2064128256513" y="-191.29625140400637"/>
<rect fill="#DD3355" height="10" width="10" x="319.1683366733467" y="-190.37586967588663"/>
<rect fill="#DD3355" height="10" width="10" x="320.1302605210421" y="-189.45274053962328"/>
<rect fill="#DD3355" height="10" width="10" x="321.0921843687375" y="-188.52686399521627"/>
<rect fill="#DD3355" height="10" width="10" x="322.0541082164329" y="-187.59824004266562"/>
<rect fill="#DD3355" height="10" width="10" x="323.01603206412824" y="-186.66686868197135"/>
<rect fill="#DD3355" height="10" width="10" x="323.97795591182364" y="-185.73274991313343"/>
<rect fill="#DD3355" height="10" width="10" x="324.93987975951904" y="-184.79588373615186"/>
<rect fill="#DD3355" height="10" width="10" x="325.90180360721445" y="-183.85627015102665"/>
<rect fill="#DD3355" height="10" width="10" x="326.8637274549098" y="-182.9139091577578"/>
<rect fill="#DD3355" height="10" width="10" x="327.8256513026052" y="-181.9688007563453"/>
<rect fill="#DD3355" height="10" width="10" x="328.7875751503006" y="-181.02094494678917"/>
<rect fill="#DD3355" height="10" width="10" x="329.749498997996" y="-180.0703417290894"/>
<rect fill="#DD3355" height="10" width="10" x="330.7114228456914" y="-179.116991103246"/>
<rect fill="#DD3355" height="10" width="10" x="331.67334669338675" y="-178.16089306925892"/>
<rect fill="#DD3355" height="10" width="10" x="332.63527054108215" y="-177.20204762712822"/>
<rect fill="#DD3355" height="10" width="10" x="333.59719438877755" y="-176.24045477685388"/>
<rect fill="#DD3355" height="10" width="10" x="334.55911823647295" y="-175.27611451843592"/>
<rect fill="#DD3355" height="10" width="10" x="335.52104208416836" y="-174.3090268518743"/>
<rect fill="#DD3355" height="10" width="10" x="336.4829659318637" y="-173.33919177716905"/>
<rect fill="#DD3355" height="10" width="10" x="337.4448897795591" y="-172.36660929432014"/>
<rect fill="#DD3355" height="10" width="10" x="338.4068136272545" y="-171.3912794033276"/>
<rect fill="#DD3355" height="10" width="10" x="339.3687374749499" y="-170.4132021041914"/>
<rect fill="#DD3355" height="10" width="10" x="340.3306613226453" y="-169.4323773969116"/>
<rect fill="#DD3355" height="10" width="10" x="341.29258517034066" y="-168.44880528148812"/>
<rect fill="#DD3355" height="10" width="10" x="342.25450901803606" y="-167.46248575792103"/>
<rect fill="#DD3355" height="10" width="10" x="343.21643286573146" y="-166.47341882621026"/>
<rect fill="#DD3355" height="10" width="10" x="344.17835671342687" y="-165.48160448635588"/>
<rect fill="#DD3355" height="10" width="10" x="345.14028056112227" y="-164.48704273835787"/>
<rect fill="#DD3355" height="10" width="10" x="346.1022044088176" y="-163.4897335822162"/>
<rect fill="#DD3355" height="10" width="10" x="347.064128256513" y="-162.4896770179309"/>
<rect fill="#DD3355" height="10" width="10" x="348.0260521042084" y="-161.48687304550194"/>
<rect fill="#DD3355" height="10" width="10" x="348.9879759519038" y="-160.48132166492934"/>
<rect fill="#DD3355" height="10" width="10" x="349.9498997995992" y="-159.4730228762131"/>
<rect fill="#DD3355" height="10" width="10" x="350.91182364729457" y="-158.46197667935323"/>
<rect fill="#DD3355" height="10" width="10" x="351.87374749498997" y="-157.4481830743497"/>
<rect fill="#DD3355" height="10" width="10" x="352.8356713426854" y="-156.43164206120255"/>
<rect fill="#DD3355" height="10" width="10" x="353.7975951903808" y="-155.41235363991177"/>
<rect fill="#DD3355" height="10" width="10" x="354.7595190380762" y="-154.3903178104773"/>
<rect fill="#DD3355" height="10" width="10" x="355.7214428857715" y="-153.36553457289924"/>
<rect fill="#DD3355" height="10" width="10" x="356.6833667334669" y="-152.3380039271775"/>
<rect fill="#DD3355" height="10" width="10" x="357.6452905811623" y="-151.30772587331217"/>
<rect fill="#DD3355" height="10" width="10" x="358.60721442885773" y="-150.27470041130317"/>
<rect fill="#DD3355" height="10" width="10" x="359.56913827655313" y="-149.23892754115053"/>
<rect fill="#DD3355" height="10" width="10" x="360.5310621242485" y="-148.20040726285424"/>
<rect fill="#DD3355" height="10" width="10" x="361.4929859719439" y="-147.1591395764143"/>
<rect fill="#DD3355" height="10" width="10" x="362.4549098196393" y="-146.11512448183075"/>
<rect fill="#DD3355" height="10" width="10" x="363.4168336673347" y="-145.06836197910354"/>
<rect fill="#DD3355" height="10" width="10" x="364.3787575150301" y="-144.0188520682327"/>
<rect fill="#DD3355" height="10" width="10" x="365.34068136272543" y="-142.9665947492182"/>
<rect fill="#DD3355" height="10" width="10" x="366.30260521042084" y="-141.91159002206007"/>
<rect fill="#DD3355" height="10" width="10" x="367.26452905811624" y="-140.8538378867583"/>
<rect fill="#DD3355" height="10" width="10" x="368.22645290581164" y="-139.79333834331288"/>
<rect fill="#DD3355" height="10" width="10" x="369.188376753507" y="-138.73009139172385"/>
<rect fill="#DD3355" height="10" width="10" x="370.1503006012024" y="-137.66409703199113"/>
<rect fill="#DD3355" height="10" width="10" x="371.1122244488978" y="-136.5953552641148"/>
<rect fill="#DD3355" height="10" width="10" x="372.0741482965932" y="-135.52386608809482"/>
<rect fill="#DD3355" height="10" width="10" x="373.0360721442886" y="-134.44962950393122"/>
<rect fill="#DD3355" height="10" width="10" x="373.99799599198394" y="-133.37264551162397"/>
<rect fill="#DD3355" height="10" width="10" x="374.95991983967934" y="-132.29291411117305"/>
<rect fill="#DD3355" height="10" width="10" x="375.92184368737475" y="-131.2104353025785"/>
<rect fill="#DD3355" height="10" width="10" x="376.88376753507015" y="-130.12520908584034"/>
<rect fill="#DD3355" height="10" width="10" x="377.84569138276555" y="-129.03723546095853"/>
<rect fill="#DD3355" height="10" width="10" x="378.8076152304609" y="-127.94651442793307"/>
<rect fill="#DD3355" height="10" width="10" x="379.7695390781563" y="-126.85304598676396"/>
<rect fill="#DD3355" height="10" width="10" x="380.7314629258517" y="-125.75683013745122"/>
<rect fill="#DD3355" height="10" width="10" x="381.6933867735471" y="-124.65786687999483"/>
<rect fill="#DD3355" height="10" width="10" x="382.6553106212425" y="-123.5561562143948"/>
<rect fill="#DD3355" height="10" width="10" x="383.61723446893785" y="-122.45169814065113"/>
<rect fill="#DD3355" height="10" width="10" x="384.57915831663325" y="-121.34449265876383"/>
<rect fill="#DD3355" height="10" width="10" x="385.54108216432866" y="-120.23453976873287"/>
<rect fill="#DD3355" height="10" width="10" x="386.50300601202406" y="-119.12183947055829"/>
<rect fill="#DD3355" height="10" width="10" x="387.46492985971946" y="-118.00639176424006"/>
<rect fill="#DD3355" height="10" width="10" x="388.4268537074148" y="-116.88819664977818"/>
<rect fill="#DD3355" height="10" width="10" x="389.3887775551102" y="-115.76725412717268"/>
<rect fill="#DD3355" height="10" width="10" x="390.3507014028056" y="-114.64356419642353"/>
<rect fill="#DD3355" height="10" width="10" x="391.312625250501" y="-113.51712685753073"/>
<rect fill="#DD3355" height="10" width="10" x="392.2745490981964" y="-112.3879421104943"/>
<rect fill="#DD3355" height="10" width="10" x="393.23647294589176" y="-111.25600995531421"/>
<rect fill="#DD3355" height="10" width="10" x="394.19839679358716" y="-110.1213303919905"/>
<rect fill="#DD3355" height="10" width="10" x="395.16032064128257" y="-108.98390342052313"/>
<rect fill="#DD3355" height="10" width="10" x="396.12224448897797" y="-107.84372904091214"/>
<rect fill="#DD3355" height="10" width="10" x="397.0841683366734" y="-106.70080725315749"/>
<rect fill="#DD3355" height="10" width="10" x="398.0460921843687" y="-105.55513805725921"/>
<rect fill="#DD3355" height="10" width="10" x="399.0080160320641" y="-104.4067214532173"/>
<rect fill="#DD3355" height="10" width="10" x="399.9699398797595" y="-103.25555744103173"/>
<rect fill="#DD3355" height="10" width="10" x="400.9318637274549" y="-102.10164602070253"/>
<rect fill="#DD3355" height="10" width="10" x="401.8937875751503" y="-100.94498719222969"/>
<rect fill="#DD3355" height="10" width="10" x="402.8557114228457" y="-99.7855809556132"/>
<rect fill="#DD3355" height="10" width="10" x="403.8176352705411" y="-98.62342731085307"/>
<rect fill="#DD3355" height="10" width="10" x="404.7795591182365" y="-97.4585262579493"/>
<rect fill="#DD3355" height="10" width="10" x="405.7414829659319" y="-96.2908777969019"/>
<rect fill="#DD3355" height="10" width="10" x="406.7034068136273" y="-95.12048192771084"/>
<rect fill="#DD3355" height="10" width="10" x="407.6653306613226" y="-93.94733865037615"/>
<rect fill="#DD3355" height="10" width="10" x="408.62725450901803" y="-92.77144796489782"/>
<rect fill="#DD3355" height="10" width="10" x="409.58917835671343" y="-91.59280987127585"/>
<rect fill="#DD3355" height="10" width="10" x="410.55110220440883" y="-90.41142436951023"/>
<rect fill="#DD3355" height="10" width="10" x="411.5130260521042" y="-89.22729145960098"/>
<rect fill="#DD3355" height="10" width="10" x="412.4749498997996" y="-88.04041114154808"/>
<rect fill="#DD3355" height="10" width="10" x="413.436873747495" y="-86.85078341535154"/>
<rect fill="#DD3355" height="10" width="10" x="414.3987975951904" y="-85.65840828101138"/>
<rect fill="#DD3355" height="10" width="10" x="415.3607214428858" y="-84.46328573852755"/>
<rect fill="#DD3355" height="10" width="10" x="416.32264529058114" y="-83.2654157879001"/>
<rect fill="#DD3355" height="10" width="10" x="417.28456913827654" y="-82.06479842912898"/>
<rect fill="#DD3355" height="10" width="10" x="418.24649298597194" y="-80.86143366221425"/>
<rect fill="#DD3355" height="10" width="10" x="419.20841683366734" y="-79.65532148715587"/>
<rect fill="#DD3355" height="10" width="10" x="420.17034068136275" y="-78.44646190395385"/>
<rect fill="#DD3355" height="10" width="10" x="421.1322645290581" y="-77.23485491260818"/>
<rect fill="#DD3355" height="10" width="10" x="422.0941883767535" y="-76.02050051311888"/>
<rect fill="#DD3355" height="10" width="10" x="423.0561122244489" y="-74.80339870548593"/>
<rect fill="#DD3355" height="10" width="10" x="424.0180360721443" y="-73.58354948970934"/>
<rect fill="#DD3355" height="10" width="10" x="424.9799599198397" y="-72.36095286578912"/>
<rect fill="#DD3355" height="10" width="10" x="425.94188376753505" y="-71.13560883372524"/>
<rect fill="#DD3355" height="10" width="10" x="426.90380761523045" y="-69.90751739351774"/>
<rect fill="#DD3355" height="10" width="10" x="427.86573146292585" y="-68.67667854516658"/>
<rect fill="#DD3355" height="10" width="10" x="428.82765531062125" y="-67.44309228867179"/>
<rect fill="#DD3355" height="10" width="10" x="429.78957915831666" y="-66.20675862403336"/>
<rect fill="#DD3355" height="10" width="10" x="430.751503006012" y="-64.96767755125128"/>
<rect fill="#DD3355" height="10" width="10" x="431.7134268537074" y="-63.725849070325566"/>
<rect fill="#DD3355" height="10" width="10" x="432.6753507014028" y="-62.48127318125621"/>
<rect fill="#DD3355" height="10" width="10" x="433.6372745490982" y="-61.23394988404321"/>
<rect fill="#DD3355" height="10" width="10" x="434.5991983967936" y="-59.98387917868658"/>
<rect fill="#DD3355" height="10" width="10" x="435.56112224448896" y="-58.731061065186296"/>
<rect fill="#DD3355" height="10" width="10" x="436.52304609218436" y="-57.47549554354238"/>
<rect fill="#DD3355" height="10" width="10" x="437.48496993987976" y="-56.217182613754815"/>
<rect fill="#DD3355" height="10" width="10" x="438.44689378757516" y="-54.95612227582362"/>
<rect fill="#DD3355" height="10" width="10" x="439.40881763527057" y="-53.69231452974877"/>
<rect fill="#DD3355" height="10" width="10" x="440.3707414829659" y="-52.42575937553029"/>
<rect fill="#DD3355" height="10" width="10" x="441.3326653306613" y="-51.15645681316816"/>
<rect fill="#DD3355" height="10" width="10" x="442.2945891783567" y="-49.8844068426624"/>
<rect fill="#DD3355" height="10" width="10" x="443.2565130260521" y="-48.60960946401299"/>
<rect fill="#DD3355" height="10" width="10" x="444.2184368737475" y="-47.33206467721995"/>
<rect fill="#DD3355" height="10" width="10" x="445.18036072144287" y="-46.051772482283255"/>
<rect fill="#DD3355" height="10" width="10" x="446.14228456913827" y="-44.76873287920293"/>
<rect fill="#DD3355" height="10" width="10" x="447.10420841683367" y="-43.482945867978955"/>
<rect fill="#DD3355" height="10" width="10" x="448.0661322645291" y="-42.19441144861135"/>
<rect fill="#DD3355" height="10" width="10" x="449.0280561122245" y="-40.90312962110009"/>
<rect fill="#DD3355" height="10" width="10" x="449.9899799599198" y="-39.6091003854452"/>
<rect fill="#DD3355" height="10" width="10" x="450.9519038076152" y="-38.312323741646665"/>
<rect fill="#DD3355" height="10" width="10" x="451.9138276553106" y="-37.012799689704494"/>
<rect fill="#DD3355" height="10" width="10" x="452.87575150300603" y="-35.710528229618674"/>
<rect fill="#DD3355" height="10" width="10" x="453.8376753507014" y="-34.40550936138922"/>
<rect fill="#DD3355" height="10" width="10" x="454.7995991983968" y="-33.09774308501612"/>
<rect fill="#DD3355" height="10" width="10" x="455.7615230460922" y="-31.78722940049938"/>
<rect fill="#DD3355" height="10" width="10" x="456.7234468937876" y="-30.473968307839"/>
<rect fill="#DD3355" height="10" width="10" x="457.685370741483" y="-29.15795980703498"/>
<rect fill="#DD3355" height="10" width="10" x="458.64729458917833" y="-27.83920389808732"/>
<rect fill="#DD3355" height="10" width="10" x="459.60921843687373" y="-26.517700580996017"/>
<rect fill="#DD3355" height="10" width="10" x="460.57114228456913" y="-25.193449855761074"/>
<rect fill="#DD3355" height="10" width="10" x="461.53306613226454" y="-23.86645172238249"/>
<rect fill="#DD3355" height="10" width="10" x="462.49498997995994" y="-22.53670618086026"/>
<rect fill="#DD3355" height="10" width="10" x="463.4569138276553" y="-21.204213231194394"/>
<rect fill="#DD3355" height="10" width="10" x="464.4188376753507" y="-19.868972873384887"/>
<rect fill="#DD3355" height="10" width="10" x="465.3807615230461" y="-18.53098510743174"/>
<rect fill="#DD3355" height="10" width="10" x="466.3426853707415" y="-17.19024993333495"/>
<rect fill="#DD3355" height="10" width="10" x="467.3046092184369" y="-15.846767351094519"/>
<rect fill="#DD3355" height="10" width="10" x="468.26653306613224" y="-14.500537360710448"/>
<rect fill="#DD3355" height="10" width="10" x="469.22845691382764" y="-13.151559962182734"/>
<rect fill="#DD3355" height="10" width="10" x="470.19038076152304" y="-11.799835155511381"/>
<rect fill="#DD3355" height="10" width="10" x="471.15230460921845" y="-10.445362940696388"/>
<rect fill="#DD3355" height="10" width="10" x="472.11422845691385" y="-9.088143317737753"/>
<rect fill="#DD3355" height="10" width="10" x="473.0761523046092" y="-7.728176286635476"/>
<rect fill="#DD3355" height="10" width="10" x="474.0380761523046" y="-6.365461847389558"/>
<rect fill="#DD3355" height="10" width="10" x="475" y="-5"/>
</g>
</g>
<g>
<g>
<line stroke="black" stroke-width="1" x1="0" x2="0" y1="0" y2="10"/>
<line stroke="black" stroke-width="1" x1="96.19238476953907" x2="96.19238476953907" y1="0" y2="10"/>
<line stroke="black" stroke-width="1" x1="192.38476953907815" x2="192.38476953907815" y1="0" y2="10"/>
<line stroke="black" stroke-width="1" x1="288.57715430861725" x2="288.57715430861725" y1="0" y2="10"/>
<line stroke="black" stroke-width="1" x1="384.7695390781563" x2="384.7695390781563" y1="0" y2="10"/>
</g>
<line stroke="black" stroke-width="1" x1="0" x2="480" y1="0" y2="0"/>
<g>
<text font-size="12" text-anchor="middle" x="0" y="20">
0
</text>
<text font-size="12" text-anchor="middle" x="96.19238476953907" y="20">
100
</text>
<text font-size="12" text-anchor="middle" x="192.38476953907815" y="20">
200
</text>
<text font-size="12" text-anchor="middle" x="288.57715430861725" y="20">
300
</text>
<text font-size="12" text-anchor="middle" x="384.7695390781563" y="20">
400
</text>
</g>
<text font-size="12" text-anchor="middle" x="240" y="30">

</text>
</g>
<g>
<g>
<line stroke="black" stroke-width="1" x1="0" x2="-10" y1="-65.25643822776013" y2="-65.25643822776013"/>
<line stroke="black" stroke-width="1" x1="0" x2="-10" y1="-133.94164181878418" y2="-133.94164181878418"/>
<line stroke="black" stroke-width="1" x1="0" x2="-10" y1="-202.62684540980825" y2="-202.62684540980825"/>
<line stroke="black" stroke-width="1" x1="0" x2="-10" y1="-271.3120490008323" y2="-271.3120490008323"/>
<line stroke="black" stroke-width="1" x1="0" x2="-10" y1="-339.99725259185635" y2="-339.99725259185635"/>
</g>
<line stroke="black" stroke-width="1" x1="0" x2="0" y1="0" y2="-340"/>
<g>
<text dominant-baseline="middle" font-size="12" text-anchor="end" x="-15" y="-65.25643822776013">
-200000
</text>
<text dominant-baseline="middle" font-size="12" text-anchor="end" x="-15" y="-133.94164181878418">
-150000
</text>
<text dominant-baseline="middle" font-size="12" text-anchor="end" x="-15" y="-202.62684540980825">
-100000
</text>
<text dominant-baseline="middle" font-size="12" text-anchor="end" x="-15" y="-271.3120490008323">
-50000
</text>
<text dominant-baseline="middle" font-size="12" text-anchor="end" x="-15" y="-339.99725259185635">
0
</text>
</g>
<text font-size="12" text-anchor="middle" transform="rotate(-90 -84 -170)" x="-84" y="-182">

</text>
</g>
</g>
</svg>